<svg width="151" height="56" viewBox="0 0 151 56" fill="none" xmlns="http://www.w3.org/2000/svg">
<rect x="0.429688" y="0.429688" width="150.141" height="55.1412" rx="4" stroke="white" stroke-width="0.858824"/>
<path fill-rule="evenodd" clip-rule="evenodd" d="M83.9276 16.1896L85.0696 14.7246H84.1376L83.2676 16.1886H83.9276V16.1896ZM58.3076 16.0186C58.449 16.0191 58.5848 15.9631 58.6847 15.863C58.7846 15.7629 58.8404 15.627 58.8396 15.4856C58.8409 15.3441 58.7853 15.208 58.6853 15.1079C58.5852 15.0079 58.4491 14.9523 58.3076 14.9536C58.0264 14.9709 57.8072 15.2039 57.8072 15.4856C57.8072 15.7673 58.0264 16.0004 58.3076 16.0176V16.0186ZM50.6836 14.9546V21.9996H53.0516C55.1466 21.9996 56.3766 20.6956 56.3766 18.4746C56.3766 16.2576 55.1416 14.9546 53.0516 14.9546H50.6836ZM51.5626 15.7446H52.9926C54.5946 15.7446 55.4776 16.7216 55.4776 18.4846C55.4776 20.2316 54.5896 21.2086 52.9926 21.2086H51.5626V15.7446ZM58.7326 21.9996H57.8826V16.9216H58.7326V21.9996ZM61.7116 19.7296C60.7558 19.4997 60.2918 19.0558 60.2916 18.3231C60.2919 17.4534 61.0588 16.8336 62.1566 16.8336C63.2706 16.8336 64.0126 17.4876 64.0466 18.3866H63.2366C63.1726 17.8546 62.7816 17.5266 62.1566 17.5266C61.5366 17.5266 61.1266 17.8346 61.1266 18.2786C61.1266 18.6306 61.3856 18.8696 61.9516 19.0066L62.7576 19.2016C63.7836 19.4506 64.1536 19.8516 64.1536 20.5786C64.1536 21.4626 63.3186 22.0876 62.1866 22.0876C60.9946 22.0876 60.2526 21.4866 60.1546 20.5346H61.0046C61.1066 21.1156 61.4976 21.3946 62.1866 21.3946C62.8746 21.3946 63.2986 21.1016 63.2986 20.6426C63.2986 20.2756 63.0986 20.0656 62.5186 19.9246L61.7116 19.7296ZM68.0036 16.8336C67.2666 16.8336 66.6756 17.2096 66.3636 17.7806H66.3436V16.9206H65.5376V23.6936H66.3876V21.1736H66.4076C66.7096 21.7306 67.2956 22.0876 68.0226 22.0876C69.3026 22.0876 70.1766 21.0526 70.1766 19.4606C70.1766 17.8686 69.2966 16.8336 68.0036 16.8336ZM66.3826 19.4606C66.3826 20.5936 66.9676 21.3406 67.8376 21.3406C68.7406 21.3406 69.3076 20.6126 69.3076 19.4606C69.3076 18.3136 68.7406 17.5806 67.8376 17.5806C66.9686 17.5806 66.3826 18.3326 66.3826 19.4606ZM73.6406 22.0876C75.0416 22.0876 75.9886 21.0776 75.9886 19.4606C75.9886 17.8396 75.0416 16.8336 73.6406 16.8336C72.2336 16.8336 71.2866 17.8396 71.2866 19.4606C71.2866 21.0766 72.2336 22.0876 73.6406 22.0876ZM72.1506 19.4606C72.1506 20.6566 72.7416 21.3406 73.6406 21.3406C74.5386 21.3406 75.1246 20.6566 75.1246 19.4606C75.1246 18.2646 74.5386 17.5806 73.6406 17.5806C72.7416 17.5806 72.1506 18.2646 72.1506 19.4606ZM77.3486 21.9996H78.1986V19.0116C78.1986 18.1516 78.7206 17.5856 79.5216 17.5856C80.3016 17.5856 80.6876 18.0356 80.6876 18.8556V21.9996H81.5376V18.7036C81.5376 17.5516 80.8936 16.8336 79.7796 16.8336C78.9936 16.8336 78.4516 17.1856 78.1686 17.7316H78.1486V16.9216H77.3486V21.9996ZM84.0156 21.9996H83.1656V16.9216H84.0156V21.9996ZM88.9436 16.9216H89.8276L87.9626 21.9996H87.0936L85.2236 16.9216H86.1176L87.5176 21.0966H87.5376L88.9436 16.9216ZM92.8866 17.5716C93.6866 17.5716 94.2196 18.1766 94.2386 19.0256H91.4806C91.5336 18.1816 92.0906 17.5706 92.8866 17.5706V17.5716ZM92.9596 21.3506C93.6046 21.3506 94.0776 21.0226 94.2196 20.5446H95.0546C94.9076 21.4336 94.0486 22.0876 92.9406 22.0876C91.4846 22.0876 90.6006 21.0766 90.6006 19.4796C90.6006 17.9036 91.4996 16.8336 92.9006 16.8336C94.2726 16.8336 95.1176 17.8296 95.1176 19.3676V19.6896H91.4756V19.7386C91.4756 20.7106 92.0466 21.3506 92.9596 21.3506ZM96.5216 21.9996H97.3716V14.9536H96.5216V21.9996ZM102.419 21.9996H101.569V16.9216H102.37V17.7316H102.39C102.673 17.1856 103.215 16.8336 104.001 16.8336C105.114 16.8336 105.759 17.5516 105.759 18.7036V21.9996H104.909V18.8556C104.909 18.0356 104.523 17.5856 103.742 17.5856C102.941 17.5856 102.419 18.1516 102.419 19.0116V21.9996ZM109.018 21.3646C108.407 21.3646 108.002 21.0476 108.002 20.5646C108.002 20.0846 108.393 19.7826 109.076 19.7386L110.434 19.6556V20.0706C110.434 20.8036 109.818 21.3646 109.018 21.3646ZM110.458 21.1256C110.155 21.7066 109.511 22.0876 108.827 22.0876C107.816 22.0876 107.138 21.4766 107.138 20.5646C107.138 19.6946 107.807 19.1476 108.979 19.0796L110.434 18.9966V18.5716C110.434 17.9516 110.023 17.5806 109.32 17.5806C108.666 17.5806 108.256 17.8886 108.148 18.3866H107.328C107.387 17.5076 108.139 16.8336 109.34 16.8336C110.531 16.8336 111.283 17.4786 111.283 18.4896V21.9996H110.478V21.1256H110.458Z" fill="white"/>
<path fill-rule="evenodd" clip-rule="evenodd" d="M35.6229 14.2168C35.7919 15.6958 35.1859 17.1528 34.3029 18.2238C33.3789 19.2788 31.9029 20.0848 30.4659 19.9808C30.2769 18.5578 31.0059 17.0448 31.8209 16.1218C32.7429 15.0748 34.3439 14.2718 35.6229 14.2168ZM40.3299 22.7468C40.1699 22.8398 37.5099 24.3768 37.5399 27.5118C37.573 31.2968 40.9589 32.5488 40.9999 32.5618C40.9799 32.6508 40.4699 34.3688 39.1999 36.1128C38.1399 37.6488 37.0289 39.1498 35.2639 39.1768C34.4249 39.1958 33.8589 38.9618 33.2689 38.7188C32.6529 38.4648 32.0119 38.1998 31.0079 38.1998C29.9439 38.1998 29.2739 38.4728 28.6279 38.7368C28.0679 38.9648 27.5279 39.1848 26.7659 39.2148C25.0859 39.2748 23.8009 37.5758 22.7029 36.0548C20.5059 32.9468 18.7959 27.2968 21.0889 23.4528C22.1989 21.5678 24.2249 20.3528 26.3899 20.3208C27.3439 20.3018 28.2579 20.6578 29.0599 20.9708C29.6729 21.2088 30.2199 21.4208 30.6679 21.4208C31.0619 21.4208 31.5929 21.2168 32.2129 20.9788C33.1899 20.6038 34.3849 20.1438 35.6029 20.2688C36.4349 20.2918 38.8039 20.5868 40.3329 22.7458L40.3299 22.7468ZM94.589 38.2368C95.38 37.5438 95.7749 36.6438 95.7749 35.5388C95.7749 34.6408 95.505 33.8888 94.964 33.2868C94.421 32.6838 93.5779 32.1568 92.4289 31.7068C91.489 31.3468 90.8429 31.0128 90.487 30.7048C90.077 30.3708 89.8739 29.9458 89.8739 29.4328C89.8739 28.9688 90.0519 28.5768 90.409 28.2558C90.8289 27.8958 91.418 27.7158 92.17 27.7158C93.1219 27.7158 93.973 27.9158 94.725 28.3138L95.2599 26.6168C94.4539 26.2058 93.445 25.9998 92.2299 25.9998C90.868 25.9998 89.778 26.3398 88.962 27.0228C88.142 27.7048 87.7329 28.5798 87.7329 29.6478C87.7329 31.2828 88.9009 32.5258 91.238 33.3738C92.097 33.6838 92.712 34.0178 93.0799 34.3788C93.45 34.7388 93.6349 35.1828 93.6349 35.7098C93.6349 36.3018 93.4109 36.7758 92.963 37.1298C92.513 37.4828 91.8849 37.6598 91.0799 37.6598C89.993 37.669 88.9241 37.3821 87.988 36.8298L87.492 38.5658C88.364 39.1058 89.516 39.3758 90.952 39.3758C92.5079 39.3758 93.7189 38.9958 94.589 38.2378V38.2368ZM58.993 39.1828H61.271L56.952 26.1898H54.2979L49.9999 39.1828H52.2179L53.4069 35.3668H57.7449L58.993 39.1828ZM56.2399 30.3728L57.3679 33.7648H53.7839L54.8919 30.3728C55.1829 29.2938 55.3949 28.4778 55.5269 27.9248H55.5669C55.8969 29.2098 56.1199 30.0258 56.2399 30.3728ZM70.9959 38.1608C71.8809 37.2358 72.3229 35.9768 72.3229 34.3828C72.3229 32.9568 71.9439 31.8068 71.1829 30.9328C70.4249 30.0578 69.4769 29.6228 68.341 29.6228C66.8889 29.6228 65.8069 30.1798 65.0929 31.2988H65.0529L64.9329 29.8138H63.0529C63.1049 30.8688 63.1319 31.8968 63.1319 32.8978V42.9998H65.2709V38.0648H65.3109C65.8659 38.9508 66.7759 39.3948 68.0449 39.3948C69.2189 39.3948 70.2029 38.9838 70.9959 38.1608ZM69.5099 32.2038C69.9339 32.7958 70.144 33.5478 70.144 34.4598C70.144 35.4498 69.9189 36.2458 69.4699 36.8498C69.0219 37.4538 68.395 37.7568 67.59 37.7568C66.903 37.7568 66.345 37.5218 65.916 37.0528C65.486 36.5828 65.2719 36.0078 65.2719 35.3268V33.7638C65.2719 33.5978 65.305 33.3878 65.3719 33.1298C65.4895 32.5998 65.7862 32.1266 66.2119 31.7898C66.6419 31.4498 67.1209 31.2788 67.6479 31.2788C68.4269 31.2788 69.048 31.5868 69.5099 32.2038ZM83.395 34.3838C83.395 35.9768 82.9529 37.2358 82.0669 38.1608C81.2749 38.9838 80.291 39.3948 79.117 39.3948C77.8479 39.3948 76.937 38.9508 76.3839 38.0648H76.3439V42.9998H74.2039V32.8978C74.2039 31.8968 74.1779 30.8678 74.1259 29.8138H76.006L76.1259 31.2988H76.166C76.8779 30.1798 77.9609 29.6218 79.4139 29.6218C80.549 29.6218 81.4969 30.0578 82.257 30.9318C83.0149 31.8068 83.395 32.9568 83.395 34.3828V34.3838ZM81.216 34.4598C81.216 33.5478 81.0039 32.7958 80.5809 32.2038C80.118 31.5868 79.5 31.2788 78.7209 31.2788C78.1909 31.2788 77.7129 31.4508 77.2829 31.7888C76.854 32.1308 76.5739 32.5768 76.4429 33.1288C76.3845 33.3357 76.351 33.5489 76.3429 33.7638V35.3268C76.3429 36.0068 76.5579 36.5828 76.986 37.0528C77.4149 37.5208 77.9729 37.7568 78.6609 37.7568C79.466 37.7568 80.0939 37.4538 80.5409 36.8498C80.9909 36.2458 81.216 35.4498 81.216 34.4598ZM102.846 31.3768H100.488V35.9248C100.488 37.0818 100.904 37.6598 101.736 37.6598C102.119 37.6598 102.436 37.6278 102.686 37.5628L102.746 39.1428C102.324 39.2968 101.77 39.3738 101.082 39.3738C100.238 39.3738 99.5779 39.1238 99.101 38.6228C98.6259 38.1208 98.3879 37.2788 98.3879 36.0968V31.3748H96.9829V29.8128H98.3879V28.0968L100.488 27.4798V29.8128H102.846V31.3768ZM112.215 37.9678C113.059 37.0438 113.483 35.8608 113.483 34.4208C113.483 33.0208 113.073 31.8768 112.253 30.9908C111.395 30.0788 110.258 29.6228 108.846 29.6228C107.38 29.6228 106.214 30.0858 105.351 31.0108C104.485 31.9358 104.054 33.1248 104.054 34.5768C104.054 35.9638 104.473 37.1148 105.312 38.0268C106.15 38.9388 107.275 39.3948 108.687 39.3948C110.153 39.3948 111.329 38.9198 112.215 37.9678ZM110.69 32.2658C111.074 32.8838 111.264 33.6248 111.264 34.4888C111.264 35.3518 111.065 36.1008 110.671 36.7298C110.208 37.4898 109.567 37.8698 108.751 37.8698C107.917 37.8698 107.271 37.4978 106.808 36.7498C106.424 36.1328 106.235 35.3918 106.235 34.5278C106.235 33.6378 106.424 32.8848 106.808 32.2658C107.257 31.5188 107.91 31.1458 108.77 31.1458C109.6 31.1458 110.241 31.5178 110.69 32.2658ZM120.435 31.6448C120.212 31.6056 119.987 31.5862 119.761 31.5868C119.008 31.5868 118.427 31.8638 118.017 32.4168C117.661 32.9048 117.483 33.5218 117.483 34.2668V39.1828H115.345L115.365 32.7648C115.365 31.6848 115.338 30.7018 115.285 29.8148H117.148L117.226 31.6078H117.285C117.49 31.0199 117.861 30.5043 118.354 30.1238C118.804 29.7978 119.345 29.6221 119.9 29.6218C120.098 29.6218 120.276 29.6358 120.435 29.6598V31.6448ZM129.922 34.9988C129.979 34.6875 130.005 34.3713 130 34.0548C130 32.8858 129.716 31.9018 129.151 31.1068C128.438 30.1048 127.388 29.6038 126 29.6038C124.588 29.6038 123.465 30.1048 122.635 31.1068C121.841 32.0448 121.445 33.2208 121.445 34.6338C121.445 36.0738 121.871 37.2198 122.722 38.0738C123.575 38.9288 124.746 39.3558 126.239 39.3558C127.48 39.3558 128.555 39.1638 129.466 38.7768L129.131 37.3328C128.352 37.6278 127.485 37.7758 126.535 37.7758C125.676 37.7758 124.977 37.5568 124.436 37.1208C123.84 36.6318 123.53 35.9248 123.505 34.9988H129.922ZM127.545 31.9148C127.835 32.3648 127.975 32.8978 127.961 33.5148H123.505C123.571 32.8848 123.782 32.3448 124.138 31.8948C124.573 31.3288 125.142 31.0468 125.841 31.0468C126.606 31.0468 127.175 31.3368 127.545 31.9148Z" fill="white"/>
</svg>
