<?xml version="1.0" standalone="no"?><svg xmlns="http://www.w3.org/2000/svg" viewBox="0 0 1440 320"><path fill="#00ffb7" fill-opacity="1" d="M0,192L34.3,165.3C68.6,139,137,85,206,64C274.3,43,343,53,411,90.7C480,128,549,192,617,186.7C685.7,181,754,107,823,101.3C891.4,96,960,160,1029,160C1097.1,160,1166,96,1234,74.7C1302.9,53,1371,75,1406,85.3L1440,96L1440,0L1405.7,0C1371.4,0,1303,0,1234,0C1165.7,0,1097,0,1029,0C960,0,891,0,823,0C754.3,0,686,0,617,0C548.6,0,480,0,411,0C342.9,0,274,0,206,0C137.1,0,69,0,34,0L0,0Z"></path></svg>