<?xml version="1.0" standalone="no"?><svg xmlns="http://www.w3.org/2000/svg" viewBox="0 0 1440 320"><path fill="#00ffb7" fill-opacity="1" d="M0,160L20,144C40,128,80,96,120,106.7C160,117,200,171,240,170.7C280,171,320,117,360,101.3C400,85,440,107,480,133.3C520,160,560,192,600,197.3C640,203,680,181,720,176C760,171,800,181,840,181.3C880,181,920,171,960,192C1000,213,1040,267,1080,256C1120,245,1160,171,1200,128C1240,85,1280,75,1320,90.7C1360,107,1400,149,1420,170.7L1440,192L1440,0L1420,0C1400,0,1360,0,1320,0C1280,0,1240,0,1200,0C1160,0,1120,0,1080,0C1040,0,1000,0,960,0C920,0,880,0,840,0C800,0,760,0,720,0C680,0,640,0,600,0C560,0,520,0,480,0C440,0,400,0,360,0C320,0,280,0,240,0C200,0,160,0,120,0C80,0,40,0,20,0L0,0Z"></path></svg>