<?xml version="1.0" standalone="no"?><svg xmlns="http://www.w3.org/2000/svg" viewBox="0 0 1440 320"><path fill="#00ffb7" fill-opacity="1" d="M0,192L34.3,165.3C68.6,139,137,85,206,64C274.3,43,343,53,411,90.7C480,128,549,192,617,186.7C685.7,181,754,107,823,101.3C891.4,96,960,160,1029,160C1097.1,160,1166,96,1234,74.7C1302.9,53,1371,75,1406,85.3L1440,96L1440,320L1405.7,320C1371.4,320,1303,320,1234,320C1165.7,320,1097,320,1029,320C960,320,891,320,823,320C754.3,320,686,320,617,320C548.6,320,480,320,411,320C342.9,320,274,320,206,320C137.1,320,69,320,34,320L0,320Z"></path></svg>