<svg width="151" height="56" viewBox="0 0 151 56" fill="none" xmlns="http://www.w3.org/2000/svg">
<rect x="0.429688" y="0.429688" width="150.141" height="55.1412" rx="4" stroke="white" stroke-width="0.858824"/>
<path fill-rule="evenodd" clip-rule="evenodd" d="M54.8874 30.7156V32.5216H59.2844C59.1524 33.5416 58.8064 34.2976 58.2874 34.8116C57.6464 35.4476 56.6484 36.1446 54.8974 36.1446C52.1904 36.1446 50.0734 33.9846 50.0734 31.3006C50.0734 28.6166 52.1904 26.4566 54.8974 26.4566C56.3534 26.4566 57.4224 27.0216 58.2054 27.7586L59.4984 26.4766C58.3984 25.4376 56.9434 24.6406 54.8884 24.6406C51.1824 24.6406 48.0684 27.6276 48.0684 31.3106C48.0684 34.9836 51.1824 37.9806 54.8884 37.9806C56.8924 37.9806 58.3984 37.3346 59.5804 36.1136C60.7904 34.9136 61.1674 33.2176 61.1674 31.8556C61.1674 31.4316 61.1374 31.0386 61.0664 30.7156H54.8874ZM66.1654 29.3836C63.7734 29.3836 61.8194 31.1896 61.8194 33.6716C61.8194 36.1446 63.7734 37.9616 66.1654 37.9616C68.5574 37.9616 70.5114 36.1446 70.5114 33.6716C70.5114 31.1896 68.5574 29.3836 66.1654 29.3836ZM71.3054 33.6716C71.3054 31.1896 73.2604 29.3836 75.6524 29.3836C78.0444 29.3836 79.9984 31.1896 79.9984 33.6716C79.9984 36.1446 78.0444 37.9616 75.6524 37.9616C73.2604 37.9616 71.3054 36.1446 71.3054 33.6716ZM73.2094 33.6716C73.2094 35.2056 74.3394 36.2756 75.6524 36.2756C76.9544 36.2756 78.0944 35.2056 78.0944 33.6716C78.0944 32.1286 76.9654 31.0686 75.6524 31.0686C74.3394 31.0686 73.2094 32.1276 73.2094 33.6716ZM63.7224 33.6716C63.7224 35.2056 64.8524 36.2756 66.1654 36.2756C67.4784 36.2756 68.6084 35.2056 68.6084 33.6716C68.6084 32.1286 67.4784 31.0686 66.1654 31.0686C64.8524 31.0686 63.7224 32.1276 63.7224 33.6716ZM97.3024 29.3836C99.5514 29.3836 100.65 31.1596 101.007 32.1176L101.21 32.6026L95.4194 34.9746C95.8564 35.8316 96.5484 36.2746 97.5154 36.2746C98.4834 36.2746 99.1544 35.8016 99.6434 35.0846L101.119 36.0636C100.313 37.2612 98.9592 37.9742 97.5154 37.9616C95.0524 37.9616 93.2204 36.0736 93.2204 33.6716C93.2204 31.1186 95.0724 29.3836 97.3024 29.3836ZM95.1034 33.5506C95.0534 31.8956 96.3964 31.0486 97.3634 31.0486C98.1164 31.0486 98.7574 31.4216 98.9714 31.9566L95.1034 33.5506ZM92.3044 37.7096H90.4004V37.7086V25.0946H92.3044V37.7096ZM87.2764 30.3426H87.2154C86.7874 29.8386 85.9734 29.3846 84.9354 29.3846C82.7664 29.3846 80.7824 31.2716 80.7824 33.6936C80.7824 36.0946 82.7664 37.9716 84.9354 37.9716C85.9634 37.9716 86.7874 37.5176 87.2154 36.9926H87.2754V37.6086C87.2754 39.2536 86.3904 40.1316 84.9654 40.1316C83.8054 40.1316 83.0824 39.3036 82.7874 38.6076L81.1274 39.2936C81.6074 40.4336 82.8684 41.8266 84.9654 41.8266C87.1954 41.8266 89.0774 40.5246 89.0774 37.3566V29.6466H87.2764V30.3426ZM82.6854 33.6926C82.6854 35.1866 83.7844 36.2766 85.0974 36.2766H85.0984C86.4004 36.2766 87.4184 35.1866 87.4084 33.6936C87.4084 32.1896 86.3904 31.0796 85.0974 31.0796C83.7854 31.0796 82.6854 32.1796 82.6854 33.6926ZM109.923 25.0956H105.373V37.7096H107.277V32.9266H109.933C112.04 32.9266 114.107 31.4126 114.107 29.0106C114.107 26.6086 112.02 25.0956 109.923 25.0956ZM107.267 31.1706H109.964C111.389 31.1706 112.193 29.9906 112.193 29.0006C112.173 27.7892 111.176 26.8228 109.964 26.8406H107.267V31.1706ZM121.71 29.3636C120.336 29.3636 118.911 29.9696 118.321 31.2916L120.01 31.9876C120.366 31.2916 121.038 31.0596 121.741 31.0596C122.718 31.0596 123.725 31.6446 123.736 32.6836V32.8156C123.124 32.4961 122.442 32.3297 121.751 32.3306C119.929 32.3306 118.086 33.3206 118.086 35.1666C118.086 36.8516 119.573 37.9416 121.242 37.9416C122.514 37.9416 123.227 37.3766 123.664 36.7106H123.725V37.6896H125.558V32.8556C125.568 30.6156 123.878 29.3636 121.71 29.3636ZM119.99 35.2066C119.99 35.9636 120.855 36.2766 121.476 36.2766C122.575 36.2766 123.593 35.4486 123.736 34.2886C123.237 34.0466 122.84 33.8646 122.005 33.8646C121.069 33.8646 119.99 34.2376 119.99 35.2066ZM132.245 29.6366L130.067 35.1066H130.006L127.746 29.6366H125.7L129.09 37.2856L127.156 41.5336H129.14L134.362 29.6366H132.245ZM117.048 37.7096H115.145V37.7086V25.0946H117.048V37.7096Z" fill="white"/>
<path fill-rule="evenodd" clip-rule="evenodd" d="M17.7602 15.0219L29.3682 26.8019L32.7672 23.3599L18.6162 15.2069C18.2572 15.0289 17.9902 14.9609 17.7602 15.0219ZM17.0732 15.7379L28.6812 27.5049H28.6802L17.0842 39.2849C17.0242 39.1739 17.0002 38.9199 16.9992 38.6799C16.9972 33.4983 16.9982 29.4954 16.9991 25.2332L16.9992 24.9629L17.0012 16.2429C17.0012 16.0319 17.0132 15.8479 17.0732 15.7379ZM17.7122 39.9879L17.7131 39.987C18.0755 40.0208 18.2464 39.9848 18.5202 39.8629L32.7672 31.6599L29.3802 28.2199L17.7131 39.987L17.7122 39.9869V39.9879ZM30.0552 27.4919L33.6592 23.8419L38.3842 26.6049C38.7612 26.8419 38.9632 27.0239 38.9992 27.4929C38.9752 27.9239 38.7722 28.1549 38.3852 28.4059L33.6352 31.1559L30.0552 27.4919Z" fill="white"/>
<path fill-rule="evenodd" clip-rule="evenodd" d="M79.642 14.0243H80.324V14.0253L80.945 12.9453H80.09L79.642 14.0243ZM58.338 20.6853C57.89 20.6853 57.463 20.5443 57.035 20.2513C56.6128 19.9691 56.3141 19.5363 56.2 19.0413L56.913 18.7583C56.994 19.0913 57.167 19.3733 57.433 19.5953C57.697 19.8273 57.992 19.9393 58.328 19.9393C58.664 19.9393 58.958 19.8483 59.203 19.6763C59.441 19.5126 59.5794 19.239 59.57 18.9503C59.57 18.6163 59.447 18.3543 59.203 18.1733C58.959 17.9913 58.583 17.8193 58.053 17.6583C57.513 17.4863 57.106 17.2743 56.821 17.0023C56.5436 16.7327 56.3923 16.359 56.404 15.9723C56.404 15.5393 56.577 15.1653 56.924 14.8423C57.269 14.5203 57.727 14.3583 58.277 14.3583C58.796 14.3583 59.213 14.4893 59.539 14.7413C59.865 14.9943 60.079 15.2763 60.17 15.5793L59.458 15.8723C59.3943 15.6575 59.2619 15.4696 59.081 15.3373C58.877 15.1753 58.623 15.0953 58.297 15.0953C57.992 15.0953 57.737 15.1753 57.524 15.3473C57.31 15.5183 57.208 15.7203 57.208 15.9733C57.208 16.1953 57.31 16.3863 57.503 16.5483C57.697 16.6993 57.992 16.8413 58.368 16.9623C58.674 17.0623 58.918 17.1533 59.122 17.2443C59.325 17.3343 59.529 17.4563 59.732 17.6073C59.936 17.7593 60.099 17.9403 60.201 18.1623C60.302 18.3843 60.364 18.6473 60.364 18.9393C60.364 19.2323 60.302 19.4943 60.18 19.7273C60.0677 19.9481 59.8994 20.1357 59.692 20.2713C59.4905 20.4057 59.271 20.5111 59.04 20.5843C58.827 20.6543 58.582 20.6853 58.338 20.6853ZM48.373 20.5543V14.4993H50.246C51.182 14.4993 51.936 14.7823 52.496 15.3373C53.056 15.9023 53.34 16.6283 53.34 17.5273C53.34 18.4253 53.055 19.1513 52.495 19.7173C51.925 20.2713 51.172 20.5543 50.235 20.5543H48.373ZM49.157 19.8073H50.236C50.938 19.8073 51.498 19.6053 51.916 19.2023C52.332 18.7983 52.536 18.2433 52.536 17.5163C52.536 16.8003 52.332 16.2453 51.916 15.8413C51.498 15.4383 50.948 15.2363 50.236 15.2363H49.156V19.8073H49.157ZM54.439 14.4993V20.5543H55.223V14.4993H54.439ZM61.504 20.5543H62.287V18.1123H63.58C64.0777 18.1206 64.5593 17.936 64.924 17.5973C65.3 17.2543 65.494 16.8203 65.494 16.3063C65.494 15.7813 65.3 15.3573 64.924 15.0143C64.547 14.6713 64.1 14.4993 63.58 14.4993H61.504V20.5543ZM62.288 17.3553H63.6C63.926 17.3553 64.19 17.2453 64.394 17.0223C64.598 16.8003 64.689 16.5583 64.689 16.2963C64.689 16.0333 64.588 15.7913 64.394 15.5693C64.1909 15.3474 63.9007 15.2257 63.6 15.2363H62.287V17.3563L62.288 17.3553ZM69.239 20.6853C70.135 20.6853 70.878 20.3823 71.478 19.7673L71.479 19.7663C72.079 19.1613 72.385 18.4153 72.385 17.5263C72.385 16.6493 72.079 15.9023 71.479 15.2863C70.868 14.6713 70.125 14.3683 69.24 14.3683C68.344 14.3683 67.6 14.6713 67 15.2873C66.399 15.8923 66.104 16.6493 66.104 17.5273C66.104 18.4043 66.4 19.1513 67 19.7673C67.6 20.3823 68.344 20.6853 69.239 20.6853ZM67.58 19.2623C68.028 19.7163 68.588 19.9383 69.24 19.9383C69.89 19.9383 70.45 19.7163 70.898 19.2623C71.346 18.8083 71.58 18.2333 71.58 17.5273C71.58 16.8203 71.356 16.2453 70.898 15.7913C70.451 15.3373 69.891 15.1153 69.239 15.1153C68.588 15.1153 68.028 15.3373 67.58 15.7913C67.132 16.2453 66.898 16.8213 66.898 17.5273C66.898 18.2333 67.132 18.8083 67.58 19.2623ZM73.483 14.4993V20.5543H74.277V16.7903L74.247 15.6193H74.277L77.382 20.5543H78.196V14.4993H77.412V18.0423L77.442 19.2123H77.412L74.44 14.4993H73.483ZM79.591 20.5543V14.4993H80.375V20.5543H79.591ZM83.286 20.5543L81.138 14.4993H82.003L83.673 19.4143H83.703L85.453 14.4993H86.319L84.099 20.5543H83.286ZM87.998 15.2463H90.777V14.4993H87.215V20.5543H90.778V19.8073H87.998V17.8903H90.502V17.1633H87.998V15.2463ZM92 20.5543V14.4993H92.783V19.8073H95.43V20.5543H92ZM98.463 14.4993V20.5543H99.257V16.7903L99.227 15.6193H99.257L102.361 20.5543H103.176V14.4993H102.392V18.0423L102.422 19.2123H102.392L99.42 14.4993H98.463ZM109.568 19.7673C108.967 20.3823 108.224 20.6853 107.329 20.6853C106.433 20.6853 105.69 20.3823 105.089 19.7673C104.489 19.1513 104.194 18.4043 104.194 17.5273C104.194 16.6493 104.489 15.8923 105.089 15.2873C105.69 14.6713 106.433 14.3683 107.329 14.3683C108.214 14.3683 108.957 14.6713 109.568 15.2863C110.168 15.9023 110.474 16.6493 110.474 17.5263C110.464 18.4153 110.168 19.1613 109.568 19.7663V19.7673ZM107.329 19.9383C106.677 19.9383 106.117 19.7163 105.67 19.2623C105.222 18.8083 104.988 18.2333 104.988 17.5273C104.988 16.8213 105.222 16.2453 105.67 15.7913C106.117 15.3373 106.677 15.1153 107.329 15.1153C107.98 15.1153 108.54 15.3373 108.988 15.7913C109.446 16.2453 109.67 16.8203 109.67 17.5273C109.67 18.2333 109.436 18.8083 108.988 19.2623C108.54 19.7163 107.98 19.9383 107.329 19.9383Z" fill="white"/>
</svg>
